<svg width="500" height="625" viewBox="0 0 500 625" fill="none" xmlns="http://www.w3.org/2000/svg">
<path fill-rule="evenodd" clip-rule="evenodd" d="M500 250C500 183.696 473.661 120.107 426.777 73.2233C379.893 26.3392 316.304 5.00582e-06 250 0C183.696 -5.00582e-06 120.107 26.3392 73.2233 73.2233C26.3392 120.107 1.00116e-05 183.696 0 250V575C0 602.614 22.3858 625 50 625H75C102.614 625 125 602.614 125 575V250L124.998 250C124.998 249.616 125 249.231 125.004 248.847C125.306 199.535 145.026 152.309 179.917 117.417C215.081 82.2544 262.772 62.5 312.5 62.5C362.228 62.5 409.919 82.2544 445.083 117.417C480.246 152.581 500 200.272 500 250Z" fill="#008080"/>
<rect x="375" y="250" width="125" height="218.75" fill="#FAAB36"/>
<path fill-rule="evenodd" clip-rule="evenodd" d="M499.997 250H374.998C374.998 180.963 319.033 124.998 249.997 124.998C181.356 124.998 125.638 180.323 125 248.812C125.312 199.513 145.031 152.3 179.914 117.417C215.077 82.2542 262.769 62.4998 312.497 62.4998C362.225 62.4998 409.916 82.2542 445.079 117.417C480.242 152.58 499.997 200.272 499.997 250Z" fill="url(#paint0_linear_243_6)"/>
<path fill-rule="evenodd" clip-rule="evenodd" d="M321.653 490.847C315.792 484.987 312.5 477.038 312.5 468.75C312.5 493.614 322.377 517.46 339.959 535.041C357.54 552.623 381.386 562.5 406.25 562.5C431.114 562.5 454.96 552.623 472.541 535.041C490.123 517.46 500 493.614 500 468.75H406.25H375C375 477.038 371.708 484.987 365.847 490.847C359.987 496.708 352.038 500 343.75 500C335.462 500 327.513 496.708 321.653 490.847Z" fill="url(#paint1_linear_243_6)"/>
<path fill-rule="evenodd" clip-rule="evenodd" d="M312.5 362.5V468.75C312.5 493.614 322.377 517.46 339.959 535.041C357.54 552.623 381.386 562.5 406.25 562.5C431.114 562.5 454.96 552.623 472.541 535.041C490.123 517.46 500 493.614 500 468.75C500 510.19 483.538 549.933 454.235 579.235C424.933 608.538 385.19 625 343.75 625C302.31 625 262.567 608.538 233.265 579.235C203.962 549.933 187.5 510.19 187.5 468.75V362.5C187.5 334.886 209.886 312.5 237.5 312.5H262.5C290.114 312.5 312.5 334.886 312.5 362.5Z" fill="#008080"/>
<defs>
<linearGradient id="paint0_linear_243_6" x1="124" y1="511" x2="10.0003" y2="89.9998" gradientUnits="userSpaceOnUse">
<stop offset="0.631038" stop-color="#FAAB36"/>
<stop offset="1" stop-color="#925700"/>
</linearGradient>
<linearGradient id="paint1_linear_243_6" x1="406" y1="413" x2="329" y2="615" gradientUnits="userSpaceOnUse">
<stop offset="0.37972" stop-color="#FAAB36"/>
<stop offset="0.757442" stop-color="#925700"/>
</linearGradient>
</defs>
</svg>
