<svg width="500" height="625" viewBox="0 0 500 625" fill="none" xmlns="http://www.w3.org/2000/svg">
<path fill-rule="evenodd" clip-rule="evenodd" d="M426.777 73.2233C473.661 120.107 500 183.696 500 250C500 200.272 480.246 152.581 445.083 117.417C409.919 82.2544 362.228 62.5 312.5 62.5C262.772 62.5 215.081 82.2544 179.917 117.417C145.026 152.309 125.306 199.535 125.004 248.847C125 249.231 124.998 249.616 124.998 250L0 250C1.00116e-05 183.696 26.3392 120.107 73.2233 73.2233C120.107 26.3392 183.696 -5.00582e-06 250 0C316.304 5.00582e-06 379.893 26.3392 426.777 73.2233Z" fill="#E27BD4"/>
<path d="M0 250H125V575C125 602.614 102.614 625 75 625H50C22.3858 625 0 602.614 0 575V250Z" fill="#E27BD4"/>
<path d="M187.5 468.75H312.5V362.5C312.5 334.886 290.114 312.5 262.5 312.5H237.5C209.886 312.5 187.5 334.886 187.5 362.5V468.75Z" fill="#E27BD4"/>
<rect x="375" y="250" width="125" height="218.75" fill="#63D3F8"/>
<path fill-rule="evenodd" clip-rule="evenodd" d="M499.996 250H374.998C374.998 180.963 319.033 124.998 249.996 124.998C181.356 124.998 125.638 180.323 125 248.812C125.312 199.513 145.031 152.3 179.914 117.417C215.077 82.2542 262.768 62.4998 312.497 62.4998C362.225 62.4998 409.916 82.2542 445.079 117.417C480.242 152.58 499.996 200.272 499.996 250Z" fill="url(#paint0_linear_243_26)"/>
<path fill-rule="evenodd" clip-rule="evenodd" d="M321.653 490.847C315.792 484.987 312.5 477.038 312.5 468.75C312.5 493.614 322.377 517.46 339.959 535.041C357.54 552.623 381.386 562.5 406.25 562.5C431.114 562.5 454.96 552.623 472.541 535.041C490.123 517.46 500 493.614 500 468.75H406.25H375C375 477.038 371.708 484.987 365.847 490.847C359.987 496.708 352.038 500 343.75 500C335.462 500 327.513 496.708 321.653 490.847Z" fill="url(#paint1_linear_243_26)"/>
<path fill-rule="evenodd" clip-rule="evenodd" d="M454.235 579.235C483.538 549.933 500 510.19 500 468.75C500 493.614 490.123 517.46 472.541 535.041C454.96 552.623 431.114 562.5 406.25 562.5C381.386 562.5 357.54 552.623 339.959 535.041C322.377 517.46 312.5 493.614 312.5 468.75L187.5 468.75C187.5 510.19 203.962 549.933 233.265 579.235C262.567 608.538 302.31 625 343.75 625C385.19 625 424.933 608.538 454.235 579.235Z" fill="#E27BD4"/>
<defs>
<linearGradient id="paint0_linear_243_26" x1="411.875" y1="71.8748" x2="-27.4998" y2="250" gradientUnits="userSpaceOnUse">
<stop offset="0.319044" stop-color="#63D3F8"/>
<stop offset="0.671314" stop-color="#00516C"/>
</linearGradient>
<linearGradient id="paint1_linear_243_26" x1="500" y1="438.75" x2="254.375" y2="593.75" gradientUnits="userSpaceOnUse">
<stop offset="0.420932" stop-color="#63D3F8"/>
<stop offset="0.809851" stop-color="#094B61"/>
</linearGradient>
</defs>
</svg>
