<svg width="988" height="1064" viewBox="0 0 988 1064" fill="none" xmlns="http://www.w3.org/2000/svg">
<g filter="url(#filter0_i_720_1205)">
<rect x="62.001" y="153" width="400" height="700" rx="10" fill="#2B2A2A"/>
</g>
<g filter="url(#filter1_i_720_1205)">
<rect x="489.001" y="153" width="400" height="700" rx="10" fill="#2B2A2A"/>
</g>
<g filter="url(#filter2_i_720_1205)">
<circle cx="142.222" cy="142.222" r="142.222" transform="matrix(-0.93934 0.342987 0.342987 0.93934 798.364 91.1743)" fill="#EAEAEA"/>
</g>
<mask id="mask0_720_1205" style="mask-type:luminance" maskUnits="userSpaceOnUse" x="700" y="245" width="121" height="73">
<path d="M804.183 258.976C805.563 257.848 807.578 258.924 807.281 260.681C804.201 278.928 792.627 297.871 768.028 303.68C743.429 309.49 724.603 297.727 713.684 282.786M807.281 260.681C807.578 258.924 805.563 257.848 804.183 258.976C794.572 266.827 783.739 274.391 762.306 279.453C740.872 284.515 727.8 282.597 715.692 279.875" stroke="#FEFEFE" stroke-width="25.5556" stroke-linecap="round"/>
</mask>
<g mask="url(#mask0_720_1205)">
<path d="M682.986 259.818L824.459 226.405C825.534 226.151 826.611 226.817 826.865 227.892L845.973 308.796C846.226 309.871 845.561 310.948 844.486 311.202L703.013 344.614C701.938 344.868 700.861 344.203 700.607 343.128L681.499 262.224C681.245 261.149 681.911 260.071 682.986 259.818Z" fill="#FEFEFE"/>
</g>
<path d="M787.651 224.311C780.961 225.891 773.616 219.037 771.246 209.002C768.876 198.966 772.378 189.55 779.068 187.97C785.759 186.39 793.103 193.244 795.474 203.28C797.844 213.315 794.342 222.731 787.651 224.311Z" fill="#FEFEFE"/>
<path d="M714.967 241.477C708.277 243.057 700.932 236.203 698.562 226.167C696.192 216.132 699.694 206.715 706.384 205.135C713.075 203.555 720.419 210.41 722.79 220.445C725.16 230.481 721.657 239.897 714.967 241.477Z" fill="#FEFEFE"/>
<g filter="url(#filter3_i_720_1205)">
<circle cx="211.381" cy="211.381" r="211.381" transform="matrix(0.999357 0.0358522 0.0358522 -0.999357 449.469 892.959)" fill="#EAEAEA"/>
</g>
<path d="M799.479 779.996C800.741 783.692 801.008 787.657 800.255 791.491C799.503 795.325 797.756 798.894 795.191 801.839C782.365 816.57 765.896 827.659 747.441 833.991C728.986 840.324 709.195 841.675 690.061 837.91C670.927 834.157 653.122 825.422 638.435 812.583C623.749 799.743 612.698 783.253 606.397 764.77C605.136 761.075 604.868 757.113 605.62 753.28C606.371 749.448 608.116 745.88 610.678 742.935C613.24 739.99 616.53 737.772 620.218 736.504C623.905 735.235 627.86 734.96 631.685 735.707L782.747 765.368C786.573 766.119 790.134 767.867 793.071 770.434C796.008 773.002 798.218 776.3 799.479 779.996ZM696.14 691.65C692.589 709.736 686.374 689.732 674.342 687.37C662.309 685.007 648.992 701.176 652.544 683.09C656.095 665.004 668.742 652.242 680.775 654.605C692.808 656.968 699.691 673.564 696.14 691.65ZM783.333 708.77C779.781 726.856 773.567 706.852 761.534 704.49C749.502 702.127 736.185 718.296 739.736 700.21C743.287 682.124 755.935 669.363 767.968 671.725C780 674.088 786.884 690.684 783.333 708.77Z" fill="#FEFEFE"/>
<g filter="url(#filter4_i_720_1205)">
<circle cx="109.712" cy="109.712" r="109.712" transform="matrix(0.895639 -0.444781 -0.444781 -0.895639 166.231 917.101)" fill="#EAEAEA"/>
</g>
<path opacity="0.5" d="M191.168 818.257L220.391 804.469" stroke="#FEFEFE" stroke-width="45.3" stroke-linecap="round"/>
<path opacity="0.5" d="M227.365 741.768C232.764 753.21 230.447 765.656 222.194 769.55C213.941 773.444 202.861 767.319 197.463 755.877C192.064 744.435 194.381 731.989 202.634 728.095C210.887 724.201 221.966 730.326 227.365 741.768Z" fill="#FEFEFE"/>
<path opacity="0.5" d="M163.069 797.448C171.326 793.552 173.642 781.114 168.24 769.666C162.839 758.218 151.766 752.097 143.509 755.993C135.251 759.889 132.936 772.327 138.338 783.775C143.739 795.223 154.812 801.344 163.069 797.448Z" fill="#FEFEFE"/>
<g filter="url(#filter5_i_720_1205)">
<circle cx="164.63" cy="164.63" r="164.63" transform="matrix(0.964689 -0.263393 -0.263393 -0.964689 146.337 461.97)" fill="#EAEAEA"/>
</g>
<path opacity="0.5" d="M287.169 221.548C291.801 239.958 284.782 257.612 271.502 260.953C258.223 264.294 243.686 252.063 239.054 233.653C234.422 215.242 241.44 197.589 254.72 194.248C268 190.907 282.537 203.137 287.169 221.548Z" fill="#FEFEFE"/>
<path opacity="0.5" d="M176.366 284.888C189.652 281.545 196.666 263.903 192.032 245.483C187.398 227.063 172.87 214.84 159.583 218.183C146.297 221.526 139.283 239.168 143.917 257.588C148.551 276.008 163.079 288.231 176.366 284.888Z" fill="#FEFEFE"/>
<path d="M294.585 308.094C288.958 332.169 272.6 350.745 250.713 356.251C228.827 361.757 205.626 353.134 189.276 334.589L294.585 308.094Z" fill="#F4F4F4" stroke="#F4F4F4" stroke-width="17"/>
<ellipse cx="488.501" cy="1028" rx="276.5" ry="36" fill="#FEFEFE"/>
<line y1="953.5" x2="927.002" y2="953.5" stroke="#FEFEFE"/>
<line x1="821.001" y1="991.5" x2="896.001" y2="991.5" stroke="#FEFEFE"/>
<line x1="695.001" y1="991.5" x2="803.001" y2="991.5" stroke="#FEFEFE"/>
<line x1="379.001" y1="974.5" x2="548.001" y2="974.5" stroke="#FEFEFE"/>
<line x1="24.001" y1="991.5" x2="134.001" y2="991.5" stroke="#FEFEFE"/>
<line x1="163.001" y1="991.5" x2="206.001" y2="991.5" stroke="#FEFEFE"/>
<defs>
<filter id="filter0_i_720_1205" x="62.001" y="153" width="400" height="700" filterUnits="userSpaceOnUse" color-interpolation-filters="sRGB">
<feFlood flood-opacity="0" result="BackgroundImageFix"/>
<feBlend mode="normal" in="SourceGraphic" in2="BackgroundImageFix" result="shape"/>
<feColorMatrix in="SourceAlpha" type="matrix" values="0 0 0 0 0 0 0 0 0 0 0 0 0 0 0 0 0 0 127 0" result="hardAlpha"/>
<feOffset/>
<feGaussianBlur stdDeviation="6.5"/>
<feComposite in2="hardAlpha" operator="arithmetic" k2="-1" k3="1"/>
<feColorMatrix type="matrix" values="0 0 0 0 1 0 0 0 0 1 0 0 0 0 1 0 0 0 0.7 0"/>
<feBlend mode="normal" in2="shape" result="effect1_innerShadow_720_1205"/>
</filter>
<filter id="filter1_i_720_1205" x="489.001" y="153" width="400" height="700" filterUnits="userSpaceOnUse" color-interpolation-filters="sRGB">
<feFlood flood-opacity="0" result="BackgroundImageFix"/>
<feBlend mode="normal" in="SourceGraphic" in2="BackgroundImageFix" result="shape"/>
<feColorMatrix in="SourceAlpha" type="matrix" values="0 0 0 0 0 0 0 0 0 0 0 0 0 0 0 0 0 0 127 0" result="hardAlpha"/>
<feOffset/>
<feGaussianBlur stdDeviation="6.5"/>
<feComposite in2="hardAlpha" operator="arithmetic" k2="-1" k3="1"/>
<feColorMatrix type="matrix" values="0 0 0 0 1 0 0 0 0 1 0 0 0 0 1 0 0 0 0.7 0"/>
<feBlend mode="normal" in2="shape" result="effect1_innerShadow_720_1205"/>
</filter>
<filter id="filter2_i_720_1205" x="571.29" y="131.289" width="284.521" height="284.521" filterUnits="userSpaceOnUse" color-interpolation-filters="sRGB">
<feFlood flood-opacity="0" result="BackgroundImageFix"/>
<feBlend mode="normal" in="SourceGraphic" in2="BackgroundImageFix" result="shape"/>
<feColorMatrix in="SourceAlpha" type="matrix" values="0 0 0 0 0 0 0 0 0 0 0 0 0 0 0 0 0 0 127 0" result="hardAlpha"/>
<feMorphology radius="3" operator="erode" in="SourceAlpha" result="effect1_innerShadow_720_1205"/>
<feOffset/>
<feGaussianBlur stdDeviation="9"/>
<feComposite in2="hardAlpha" operator="arithmetic" k2="-1" k3="1"/>
<feColorMatrix type="matrix" values="0 0 0 0 1 0 0 0 0 1 0 0 0 0 1 0 0 0 0.5 0"/>
<feBlend mode="normal" in2="shape" result="effect1_innerShadow_720_1205"/>
</filter>
<filter id="filter3_i_720_1205" x="456.909" y="477.908" width="422.768" height="422.768" filterUnits="userSpaceOnUse" color-interpolation-filters="sRGB">
<feFlood flood-opacity="0" result="BackgroundImageFix"/>
<feBlend mode="normal" in="SourceGraphic" in2="BackgroundImageFix" result="shape"/>
<feColorMatrix in="SourceAlpha" type="matrix" values="0 0 0 0 0 0 0 0 0 0 0 0 0 0 0 0 0 0 127 0" result="hardAlpha"/>
<feMorphology radius="3" operator="erode" in="SourceAlpha" result="effect1_innerShadow_720_1205"/>
<feOffset/>
<feGaussianBlur stdDeviation="9"/>
<feComposite in2="hardAlpha" operator="arithmetic" k2="-1" k3="1"/>
<feColorMatrix type="matrix" values="0 0 0 0 1 0 0 0 0 1 0 0 0 0 1 0 0 0 0.5 0"/>
<feBlend mode="normal" in2="shape" result="effect1_innerShadow_720_1205"/>
</filter>
<filter id="filter4_i_720_1205" x="105.959" y="660.305" width="219.472" height="219.472" filterUnits="userSpaceOnUse" color-interpolation-filters="sRGB">
<feFlood flood-opacity="0" result="BackgroundImageFix"/>
<feBlend mode="normal" in="SourceGraphic" in2="BackgroundImageFix" result="shape"/>
<feColorMatrix in="SourceAlpha" type="matrix" values="0 0 0 0 0 0 0 0 0 0 0 0 0 0 0 0 0 0 127 0" result="hardAlpha"/>
<feMorphology radius="3" operator="erode" in="SourceAlpha" result="effect1_innerShadow_720_1205"/>
<feOffset/>
<feGaussianBlur stdDeviation="9"/>
<feComposite in2="hardAlpha" operator="arithmetic" k2="-1" k3="1"/>
<feColorMatrix type="matrix" values="0 0 0 0 1 0 0 0 0 1 0 0 0 0 1 0 0 0 0.5 0"/>
<feBlend mode="normal" in2="shape" result="effect1_innerShadow_720_1205"/>
</filter>
<filter id="filter5_i_720_1205" x="97.1206" y="95.1194" width="329.342" height="329.343" filterUnits="userSpaceOnUse" color-interpolation-filters="sRGB">
<feFlood flood-opacity="0" result="BackgroundImageFix"/>
<feBlend mode="normal" in="SourceGraphic" in2="BackgroundImageFix" result="shape"/>
<feColorMatrix in="SourceAlpha" type="matrix" values="0 0 0 0 0 0 0 0 0 0 0 0 0 0 0 0 0 0 127 0" result="hardAlpha"/>
<feMorphology radius="3" operator="erode" in="SourceAlpha" result="effect1_innerShadow_720_1205"/>
<feOffset/>
<feGaussianBlur stdDeviation="9"/>
<feComposite in2="hardAlpha" operator="arithmetic" k2="-1" k3="1"/>
<feColorMatrix type="matrix" values="0 0 0 0 1 0 0 0 0 1 0 0 0 0 1 0 0 0 0.5 0"/>
<feBlend mode="normal" in2="shape" result="effect1_innerShadow_720_1205"/>
</filter>
</defs>
</svg>
