<svg width="500" height="500" viewBox="0 0 500 500" fill="none" xmlns="http://www.w3.org/2000/svg">
<rect width="500" height="500" fill="white"/>
<path fill-rule="evenodd" clip-rule="evenodd" d="M375 219C375 185.848 361.83 154.054 338.388 130.612C314.946 107.17 283.152 94 250 94C216.848 94 185.054 107.17 161.612 130.612C138.17 154.054 125 185.848 125 219V375.25C125 392.509 138.991 406.5 156.25 406.5C173.509 406.5 187.5 392.509 187.5 375.25V219L187.499 219C187.499 218.808 187.5 218.616 187.502 218.424C187.653 193.768 197.513 170.154 214.959 152.709C232.54 135.127 256.386 125.25 281.25 125.25C306.114 125.25 329.96 135.127 347.541 152.709C365.123 170.29 375 194.136 375 219Z" fill="#008080"/>
<rect x="312.5" y="219" width="62.5" height="109.375" fill="#FAAB36"/>
<path fill-rule="evenodd" clip-rule="evenodd" d="M374.998 219C374.998 218.965 374.998 218.93 374.998 218.895C374.97 194.069 365.096 170.265 347.539 152.709C329.958 135.127 306.112 125.25 281.248 125.25C256.384 125.25 232.538 135.127 214.957 152.709C197.515 170.15 187.656 193.756 187.5 218.406C187.819 184.161 215.678 156.499 249.998 156.499C284.516 156.499 312.499 184.482 312.499 219L374.998 219Z" fill="url(#paint0_linear_30_699)"/>
<path fill-rule="evenodd" clip-rule="evenodd" d="M285.826 339.424C282.896 336.493 281.25 332.519 281.25 328.375C281.25 340.807 286.189 352.73 294.979 361.521C303.77 370.311 315.693 375.25 328.125 375.25C340.557 375.25 352.48 370.311 361.271 361.521C370.061 352.73 375 340.807 375 328.375H328.125H312.5C312.5 332.519 310.854 336.493 307.924 339.424C304.993 342.354 301.019 344 296.875 344C292.731 344 288.757 342.354 285.826 339.424Z" fill="url(#paint1_linear_30_699)"/>
<path fill-rule="evenodd" clip-rule="evenodd" d="M281.25 281.5V328.375C281.25 340.807 286.189 352.73 294.979 361.521C303.77 370.311 315.693 375.25 328.125 375.25C340.557 375.25 352.48 370.311 361.271 361.521C370.061 352.73 375 340.807 375 328.375C375 349.095 366.769 368.966 352.118 383.618C337.466 398.269 317.595 406.5 296.875 406.5C276.155 406.5 256.284 398.269 241.632 383.618C226.981 368.966 218.75 349.095 218.75 328.375V281.5C218.75 264.241 232.741 250.25 250 250.25C267.259 250.25 281.25 264.241 281.25 281.5Z" fill="#008080"/>
<defs>
<linearGradient id="paint0_linear_30_699" x1="259.5" y1="333.5" x2="204" y2="132" gradientUnits="userSpaceOnUse">
<stop offset="0.558851" stop-color="#FAAB36"/>
<stop offset="0.918086" stop-color="#925700"/>
</linearGradient>
<linearGradient id="paint1_linear_30_699" x1="348.558" y1="300.731" x2="272.837" y2="404.096" gradientUnits="userSpaceOnUse">
<stop offset="0.420932" stop-color="#FAAB36"/>
<stop offset="0.787293" stop-color="#094B61"/>
</linearGradient>
</defs>
</svg>
