<svg width="250" height="313" viewBox="0 0 250 313" fill="none" xmlns="http://www.w3.org/2000/svg">
<path fill-rule="evenodd" clip-rule="evenodd" d="M250 125C250 91.8479 236.83 60.0537 213.388 36.6117C189.946 13.1696 158.152 2.50291e-06 125 0C91.8479 -2.50291e-06 60.0537 13.1696 36.6117 36.6116C13.1696 60.0537 5.00582e-06 91.8479 0 125V281.25C0 298.509 13.9911 312.5 31.25 312.5C48.5089 312.5 62.5 298.509 62.5 281.25V125L62.4991 125C62.4991 124.808 62.5 124.616 62.5018 124.424C62.6532 99.7677 72.5131 76.1544 89.9587 58.7087C107.54 41.1272 131.386 31.25 156.25 31.25C181.114 31.25 204.96 41.1272 222.541 58.7087C240.123 76.2903 250 100.136 250 125Z" fill="#00C1FD"/>
<rect x="187.5" y="125" width="62.5" height="109.375" fill="#004C96"/>
<path fill-rule="evenodd" clip-rule="evenodd" d="M249.998 125C249.998 124.965 249.998 124.93 249.998 124.895C249.97 100.069 240.096 76.2655 222.539 58.7087C204.958 41.1272 181.112 31.25 156.248 31.25C131.384 31.25 107.538 41.1272 89.9569 58.7087C72.5154 76.1501 62.656 99.7563 62.5 124.406C62.819 90.1612 90.6782 62.4992 124.998 62.4992C159.516 62.4992 187.499 90.4818 187.499 125L249.998 125Z" fill="url(#paint0_linear_39_2)"/>
<path fill-rule="evenodd" clip-rule="evenodd" d="M160.826 245.424C157.896 242.493 156.25 238.519 156.25 234.375C156.25 246.807 161.189 258.73 169.979 267.521C178.77 276.311 190.693 281.25 203.125 281.25C215.557 281.25 227.48 276.311 236.271 267.521C245.061 258.73 250 246.807 250 234.375H203.125H187.5C187.5 238.519 185.854 242.493 182.924 245.424C179.993 248.354 176.019 250 171.875 250C167.731 250 163.757 248.354 160.826 245.424Z" fill="url(#paint1_linear_39_2)"/>
<path fill-rule="evenodd" clip-rule="evenodd" d="M156.25 187.5V234.375C156.25 246.807 161.189 258.73 169.979 267.521C178.77 276.311 190.693 281.25 203.125 281.25C215.557 281.25 227.48 276.311 236.271 267.521C245.061 258.73 250 246.807 250 234.375C250 255.095 241.769 274.966 227.118 289.618C212.466 304.269 192.595 312.5 171.875 312.5C151.155 312.5 131.284 304.269 116.632 289.618C101.981 274.966 93.75 255.095 93.75 234.375V187.5C93.75 170.241 107.741 156.25 125 156.25C142.259 156.25 156.25 170.241 156.25 187.5Z" fill="#00C1FD"/>
<defs>
<linearGradient id="paint0_linear_39_2" x1="164" y1="221" x2="62" y2="-84.5" gradientUnits="userSpaceOnUse">
<stop offset="0.370868" stop-color="#004C96"/>
<stop offset="0.894799" stop-color="#02182D"/>
</linearGradient>
<linearGradient id="paint1_linear_39_2" x1="223.558" y1="206.731" x2="147.837" y2="310.096" gradientUnits="userSpaceOnUse">
<stop offset="0.420932" stop-color="#004C96"/>
<stop offset="0.787293" stop-color="#02182D"/>
</linearGradient>
</defs>
</svg>
