<svg width="250" height="313" viewBox="0 0 250 313" fill="none" xmlns="http://www.w3.org/2000/svg">
<path fill-rule="evenodd" clip-rule="evenodd" d="M213.388 36.6117C236.83 60.0537 250 91.8479 250 125C250 100.136 240.123 76.2903 222.541 58.7087C204.96 41.1272 181.114 31.25 156.25 31.25C131.386 31.25 107.54 41.1272 89.9587 58.7087C72.5131 76.1544 62.6532 99.7677 62.5018 124.424C62.5 124.616 62.4991 124.808 62.4991 125L0 125C5.00582e-06 91.8479 13.1696 60.0537 36.6117 36.6116C60.0537 13.1696 91.8479 -2.50291e-06 125 0C158.152 2.50291e-06 189.946 13.1696 213.388 36.6117Z" fill="#E27BD4"/>
<path d="M0 125H62.5V281.25C62.5 298.509 48.5089 312.5 31.25 312.5C13.9911 312.5 0 298.509 0 281.25V125Z" fill="#E27BD4"/>
<path d="M93.75 234.375H156.25V187.5C156.25 170.241 142.259 156.25 125 156.25C107.741 156.25 93.75 170.241 93.75 187.5V234.375Z" fill="#E27BD4"/>
<rect x="187.5" y="125" width="62.5" height="109.375" fill="#63D3F8"/>
<path fill-rule="evenodd" clip-rule="evenodd" d="M249.998 124.896C249.998 124.93 249.998 124.965 249.998 125H187.499C187.499 90.4818 159.516 62.4992 124.998 62.4992C90.6782 62.4992 62.819 90.1612 62.5 124.406C62.656 99.7563 72.5154 76.1502 89.9569 58.7087C107.538 41.1272 131.384 31.25 156.248 31.25C181.112 31.25 204.958 41.1272 222.539 58.7087C240.096 76.2657 249.97 100.069 249.998 124.896Z" fill="url(#paint0_linear_30_760)"/>
<path fill-rule="evenodd" clip-rule="evenodd" d="M160.826 245.424C157.896 242.493 156.25 238.519 156.25 234.375C156.25 246.807 161.189 258.73 169.979 267.521C178.77 276.311 190.693 281.25 203.125 281.25C215.557 281.25 227.48 276.311 236.271 267.521C245.061 258.73 250 246.807 250 234.375H203.125H187.5C187.5 238.519 185.854 242.493 182.924 245.424C179.993 248.354 176.019 250 171.875 250C167.731 250 163.757 248.354 160.826 245.424Z" fill="url(#paint1_linear_30_760)"/>
<path fill-rule="evenodd" clip-rule="evenodd" d="M227.118 289.618C241.769 274.966 250 255.095 250 234.375C250 246.807 245.061 258.73 236.271 267.521C227.48 276.311 215.557 281.25 203.125 281.25C190.693 281.25 178.77 276.311 169.979 267.521C161.189 258.73 156.25 246.807 156.25 234.375L93.75 234.375C93.75 255.095 101.981 274.966 116.632 289.618C131.284 304.269 151.155 312.5 171.875 312.5C192.595 312.5 212.466 304.269 227.118 289.618Z" fill="#E27BD4"/>
<defs>
<linearGradient id="paint0_linear_30_760" x1="205.938" y1="35.9375" x2="-13.75" y2="125" gradientUnits="userSpaceOnUse">
<stop offset="0.319044" stop-color="#63D3F8"/>
<stop offset="0.671314" stop-color="#00516C"/>
</linearGradient>
<linearGradient id="paint1_linear_30_760" x1="250" y1="219.375" x2="127.188" y2="296.875" gradientUnits="userSpaceOnUse">
<stop offset="0.420932" stop-color="#63D3F8"/>
<stop offset="0.809851" stop-color="#094B61"/>
</linearGradient>
</defs>
</svg>
